mtllib unnamed.mtl
# vertices
v 336 0 -400
v 336 0 -128
v 336 32 -128
v 336 32 -400
v 480 32 -128
v 480 0 -128
v 480 0 -400
v 480 32 -400
v 0 0 -128
v 0 0 -0
v 0 32 -0
v 0 32 -128
v 336 32 -0
v 336 0 -0
v 336 0 -128
v 336 32 -128
v 336 0 -128
v 336 0 -0
v 336 32 -0
v 336 32 -128
v 480 32 -0
v 480 0 -0
v 480 0 -128
v 480 32 -128
v 336 0 -0
v 336 0 144
v 336 32 144
v 336 32 -0
v 480 32 144
v 480 0 144
v 480 0 -0
v 480 32 -0
v 672 0 -400
v 672 0 144
v 672 80 144
v 672 80 -400
v 736 80 144
v 736 0 144
v 736 0 -400
v 736 80 -400
v 480 0 -400
v 480 0 144
v 480 80 144
v 480 80 -400
v 512 80 144
v 512 0 144
v 512 0 -400
v 512 80 -400
v 512 0 -400
v 512 0 -224
v 512 80 -224
v 512 80 -400
v 672 80 -224
v 672 0 -224
v 672 0 -400
v 672 80 -400
v 512 0 -48
v 512 0 144
v 512 80 144
v 512 80 -48
v 672 80 144
v 672 0 144
v 672 0 -48
v 672 80 -48

# texture coordinates
vt 12.5 -0
vt 4 -0
vt 4 1
vt 12.5 1
vt 15 1
vt 10.5 1
vt 10.5 -0
vt 15 -0
vt 15 4
vt 10.5 4
vt 10.5 12.5
vt 15 12.5
vt 4 -0.5
vt 0 -0.5
vt 0 0.5
vt 4 0.5
vt 10.5 1.5
vt 0 1.5
vt 10.5 0.5
vt 0 -0
vt 0 4
vt 10.5 -0.5
vt 0 1
vt -4.5 -0
vt -4.5 1
vt 15 -4.5
vt 10.5 -4.5
vt 12.5 -0.5
vt -4.5 -0.5
vt -4.5 2
vt 12.5 2
vt 23 2
vt 21 2
vt 21 -0.5
vt 23 -0.5
vt 23 -4.5
vt 21 -4.5
vt 21 12.5
vt 23 12.5
vt 16 2
vt 15 2
vt 15 -0.5
vt 16 -0.5
vt 16 -4.5
vt 16 12.5
vt 7 -0.5
vt 7 2
vt 21 7
vt 16 7
vt 1.5 -0.5
vt 1.5 2
vt 16 1.5
vt 21 1.5

# normals
vn -1 0 0
vn 0 0 1
vn 0 -1 -0
vn -0 1 -0
vn 0 -0 -1
vn 1 0 0

o entity0_brush0
usemtl __TB_empty
f  1/1/1  2/2/1  3/3/1  4/4/1
usemtl __TB_empty
f  5/5/2  3/6/2  2/7/2  6/8/2
usemtl __TB_empty
f  6/9/3  2/10/3  1/11/3  7/12/3
usemtl __TB_empty
f  8/12/4  4/11/4  3/10/4  5/9/4
usemtl __TB_empty
f  7/8/5  1/7/5  4/6/5  8/5/5
usemtl __TB_empty
f  8/4/6  5/3/6  6/2/6  7/1/6

o entity0_brush1
usemtl __TB_empty
f  9/13/1  10/14/1  11/15/1  12/16/1
usemtl __TB_empty
f  13/17/2  11/18/2  10/15/2  14/19/2
usemtl __TB_empty
f  14/7/3  10/20/3  9/21/3  15/10/3
usemtl __TB_empty
f  16/10/4  12/21/4  11/20/4  13/7/4
usemtl __TB_empty
f  15/22/5  9/14/5  12/15/5  16/19/5
usemtl __TB_empty
f  16/16/6  13/15/6  14/14/6  15/13/6

o entity0_brush2
usemtl __TB_empty
f  17/2/1  18/20/1  19/23/1  20/3/1
usemtl __TB_empty
f  21/5/2  19/6/2  18/7/2  22/8/2
usemtl __TB_empty
f  22/8/3  18/7/3  17/10/3  23/9/3
usemtl __TB_empty
f  24/9/4  20/10/4  19/7/4  21/8/4
usemtl __TB_empty
f  23/8/5  17/7/5  20/6/5  24/5/5
usemtl __TB_empty
f  24/3/6  21/23/6  22/20/6  23/2/6

o entity0_brush3
usemtl __TB_empty
f  25/20/1  26/24/1  27/25/1  28/23/1
usemtl __TB_empty
f  29/5/2  27/6/2  26/7/2  30/8/2
usemtl __TB_empty
f  30/26/3  26/27/3  25/7/3  31/8/3
usemtl __TB_empty
f  32/8/4  28/7/4  27/27/4  29/26/4
usemtl __TB_empty
f  31/8/5  25/7/5  28/6/5  32/5/5
usemtl __TB_empty
f  32/23/6  29/25/6  30/24/6  31/20/6

o entity2_brush0
usemtl __TB_empty
f  33/28/1  34/29/1  35/30/1  36/31/1
usemtl __TB_empty
f  37/32/2  35/33/2  34/34/2  38/35/2
usemtl __TB_empty
f  38/36/3  34/37/3  33/38/3  39/39/3
usemtl __TB_empty
f  40/39/4  36/38/4  35/37/4  37/36/4
usemtl __TB_empty
f  39/35/5  33/34/5  36/33/5  40/32/5
usemtl __TB_empty
f  40/31/6  37/30/6  38/29/6  39/28/6

o entity2_brush1
usemtl __TB_empty
f  41/28/1  42/29/1  43/30/1  44/31/1
usemtl __TB_empty
f  45/40/2  43/41/2  42/42/2  46/43/2
usemtl __TB_empty
f  46/44/3  42/26/3  41/12/3  47/45/3
usemtl __TB_empty
f  48/45/4  44/12/4  43/26/4  45/44/4
usemtl __TB_empty
f  47/43/5  41/42/5  44/41/5  48/40/5
usemtl __TB_empty
f  48/31/6  45/30/6  46/29/6  47/28/6

o entity2_brush2
usemtl __TB_empty
f  49/28/1  50/46/1  51/47/1  52/31/1
usemtl __TB_empty
f  53/33/2  51/40/2  50/43/2  54/34/2
usemtl __TB_empty
f  54/48/3  50/49/3  49/45/3  55/38/3
usemtl __TB_empty
f  56/38/4  52/45/4  51/49/4  53/48/4
usemtl __TB_empty
f  55/34/5  49/43/5  52/40/5  56/33/5
usemtl __TB_empty
f  56/31/6  53/47/6  54/46/6  55/28/6

o entity2_brush3
usemtl __TB_empty
f  57/50/1  58/29/1  59/30/1  60/51/1
usemtl __TB_empty
f  61/33/2  59/40/2  58/43/2  62/34/2
usemtl __TB_empty
f  62/37/3  58/44/3  57/52/3  63/53/3
usemtl __TB_empty
f  64/53/4  60/52/4  59/44/4  61/37/4
usemtl __TB_empty
f  63/34/5  57/43/5  60/40/5  64/33/5
usemtl __TB_empty
f  64/51/6  61/30/6  62/29/6  63/50/6

